<svg xmlns="http://www.w3.org/2000/svg" viewBox="0 0 65 55" width="32" height="32" >
  <g fill="white">
    <path d="M54.96558,22.257l.84216-.84235.02527.02527a1.57135,1.57135,0,0,0,2.22363,0l1.30176-1.30176a1.57194,1.57194,0,0,0,0-2.22412l-3.41309-3.41357a1.61059,1.61059,0,0,0-2.22363,0l-1.30176,1.30176a1.57194,1.57194,0,0,0,0,2.22412l.02466.02466-.88959.88958A21.76124,21.76124,0,0,0,41.0625,14.495V11.90674h1.68457a1.89841,1.89841,0,0,0,1.89648-1.89649v-2.145a1.89841,1.89841,0,0,0-1.89648-1.89648H33.43945A1.89841,1.89841,0,0,0,31.543,7.86523v2.145a1.89841,1.89841,0,0,0,1.89648,1.89649H35.125V14.4964a21.75006,21.75006,0,0,0-3.418.739,1.00012,1.00012,0,0,0,.584,1.91309,19.87452,19.87452,0,1,1-8.249,33.0625A.99989.99989,0,1,0,22.62793,51.625,21.86615,21.86615,0,0,0,54.96558,22.257ZM54.833,16.2168l2.80957,2.80908-.69727.69775-2.80957-2.80908Zm-.97461,3.24853.53515.53516-.77294.77319c-.17768-.17926-.361-.35278-.54468-.52588ZM33.543,9.90674v-1.938h9.10058v1.938H33.543Zm3.582,4.41687V11.90674h1.9375v2.40594c-.32147-.0141-.64386-.02459-.96875-.02459C37.76959,14.28809,37.44769,14.30951,37.125,14.32361Z"/>
    <path d="M51.08435,49.07159a18.28931,18.28931,0,0,0-.0011-25.8255c-.01263-.0141-.017-.03234-.03052-.04589s-.03186-.01789-.046-.03052a18.26641,18.26641,0,0,0-12.913-5.33765,18.45583,18.45583,0,0,0-3.28125.29346.99981.99981,0,1,0,.35547,1.96777,16.41589,16.41589,0,0,1,1.92578-.21667v1.56433a1,1,0,0,0,2,0V19.88269a16.23608,16.23608,0,0,1,9.79883,4.0636L47.794,25.04492A.99989.99989,0,1,0,49.208,26.459l1.09863-1.09863a16.23709,16.23709,0,0,1,4.0636,9.79932H52.8125a1,1,0,0,0,0,2h1.55774a16.23624,16.23624,0,0,1-4.0636,9.79907L49.208,45.85986A.99989.99989,0,0,0,47.794,47.27393l1.09857,1.09887a16.23653,16.23653,0,0,1-9.79877,4.06336V50.87793a1,1,0,1,0-2,0v1.56781a16.13383,16.13383,0,0,1-9.126-3.476.99974.99974,0,1,0-1.24023,1.56836,18.30878,18.30878,0,0,0,24.27753-1.38727c.01464-.01306.03357-.01758.04766-.03168S51.07129,49.08624,51.08435,49.07159Z"/>
    <path d="M46.62793,27.62549a.99962.99962,0,0,0-1.41406,0l-5.60529,5.60528a3.26927,3.26927,0,0,0-1.51483-.38409,3.31275,3.31275,0,1,0,3.3125,3.313,3.2705,3.2705,0,0,0-.38379-1.51465l5.60547-5.60547A.99964.99964,0,0,0,46.62793,27.62549Zm-8.53418,9.84668a1.31275,1.31275,0,1,1,.92749-2.24066l.00024.00042.00013.00013a1.312,1.312,0,0,1-.92786,2.24011Z"/>
    <path d="M26.624,19.832H20.31055a1,1,0,0,1,0-2H26.624a1,1,0,0,1,0,2Z"/>
    <path d="M17.082,19.832H15.05859a1,1,0,1,1,0-2H17.082a1,1,0,0,1,0,2Z"/>
    <path d="M29.708,26.416H12.98633a1,1,0,1,1,0-2H29.708a1,1,0,0,1,0,2Z"/>
    <path d="M22.50781,33H5.03516a1,1,0,1,1,0-2H22.50781a1,1,0,0,1,0,2Z"/>
    <path d="M27.68359,33h-1.8789a1,1,0,0,1,0-2h1.8789a1,1,0,0,1,0,2Z"/>
    <path d="M31.53906,39.584H16.7207a1,1,0,0,1,0-2H31.53906a1,1,0,1,1,0,2Z"/>
    <path d="M12.50391,46.168H10.7207a1,1,0,0,1,0-2h1.78321a1,1,0,0,1,0,2Z"/>
    <path d="M27.68359,46.168h-11.998a1,1,0,0,1,0-2h11.998a1,1,0,0,1,0,2Z"/>
  </g>
</svg>
