<?xml version="1.0" encoding="UTF-8"?>
<svg version="1.1" viewBox="0 0 1920 1260" width="500" height="250" xmlns="http://www.w3.org/2000/svg">

<path transform="translate(0)" d="m0 0h1920v1280h-1920z" fill="#BCDAEC00"/>
<path transform="translate(1011,445)" d="m0 0h20l-4 20-14 58-12 45-8 24-5 8-12-3-27-10-17-6-5-1 13 62 6 34 2 17v19l-2 7-1 4 9 11 12 16 14 18 10 13 13 17 8 11 1 2 8 147v4l-8 1h-17l2 7v4l23-1v-4l8 1 26 8 31 12 20 9 25 12 18 10 23 14 22 15 19 14 17 14 11 9 17 16 26 26 7 8 12 14 12 15 13 18 16 24 12 20 12 22 13 27v3h-883l1-11 5-24 8-28 9-24 9-20 8-16 10-18 7-11 11-16 12-16 11-13 9-10 14-15 10-9 11-10 17-13 15-11 19-12 22-12 24-11 24-9 32-9 25-5h3l-8-80-1-11v-9l-4 2h-180l-5-3-2-4v-123l3-5 4-2h63v-10l3-5 4-3h2l1 6-3 3-1 9h41l-1-10-1-1-7-1v-6h8l5 3 2 4v11h54l-2-5-1-6v-35l3-37 6-50 3-21-41 15-4 1-3 9-7 25-9 38-5 23-3 1-15-3 1-14 12-98 4-5 11-9 13-11 11-9 13-11 11-9 13-11 10-6 20-7 4 1 6 15 7 27 3 14v-15l-1-20-1-7 5-3 7 1 3 3-1 9 22 156 2 18-14 21-3-1-7-8-5-5-1 21h27v-11l7-38 2-15 1-13v-16l-2-15-6-27-8-47-6-44 13 1 12 3 14 7 25 17 23 15 9 5h4l15-34 18-43z" fill="#0C1234"/>
<path transform="translate(877,771)" d="m0 0 11 7 44 29 25 17 6 4 14 57 18 75v2l-13-2-32-5-34-3-17-1 7 8 9 9 11 14 6 10 5 10 3 12v13l-4 16-7 10-8 7-11 4-8 1h-22l-11 1-10 4-3 1-7 14-5 21-5 9-8 6-7 3-28 6-10 5-5 5-4 6-2 7v18l3 10 6 11 6 7 12 9 15 7 8 2 15 1h25l11 4 7 6 10 14 5 4 6 2h7l11-3 17-5h13l9 4 10 9 7 7 7 8 9 7 5 3 4 2h-506l1-11 5-24 8-28 9-24 9-20 8-16 10-18 7-11 11-16 12-16 11-13 9-10 14-15 10-9 11-10 17-13 15-11 19-12 22-12 24-11 24-9 32-9 25-5h3l2 11 1 13h26l4-24 1-7 29-176z" fill="#212747"/>
<path transform="translate(899,951)" d="m0 0h17l34 3 32 5 2 4v13l3 13 6 11 7 7 9 5 5 2 6 1h12l18-2h11l11 3 7 6 5 10 1 13-3 14-4 9-13 25-4 11v19l4 9 6 7 7 3h12l19-6 5-1h12l6 3 6 7 7 11 7 6 11 4 16 1 17-3 20-5h21l11 4 8 6 5 7 1 4v15l-4 11-6 10-9 11-10 13-6 10-3 9-1 5v16h-220l-7-3-9-6-9-9-7-8-7-7-6-4-6-2h-13l-17 5-11 3h-7l-9-4-7-8-8-11-8-5-7-2h-31l-13-2-11-4-11-6-12-10-7-10-5-11-1-5v-18l3-9 6-8 8-5 13-4 20-4 10-5 5-4 4-8 6-24 5-8 5-5 10-4 17-1h16l12-2 10-5 8-9 4-8 3-13v-13l-3-12-8-16-11-14-11-12-7-7z" fill="#0C1234"/>
<path transform="translate(1736,156)" d="m0 0h24l16 4 11 5 10 6 11 9 8 9 8 13 3 9 6-1h18l14 4 9 5 10 9 6 7 6 12 3 12v16l-3 12 17 3 7 3v78l-10 4-5 1h-342l-9-2-11-6-7-6v-2h-2l-6-10-3-11v-13l3-12 6-9 4-5 10-7 10-4 6-1h9l12 3 8 4 4-2 8-7 8-4 7-2 9-1 5-13 8-10 10-7 8-3h3v-17l4-16 5-12 6-10 11-12 10-9 17-9 14-4z" fill="#FEFEFE"/>
<path transform="translate(831,487)" d="m0 0 4 1 6 15 7 27 3 14v-15l-1-20-1-7 5-3 7 1 3 3-1 9 22 156 2 18-14 21-3-1-7-8-5-5-1 21h10v1h-10l-1 5-7 8-13 5-4 1h-20l-13-4-6-4-1-1 1 19 10 104v9l-3 2h-180l-5-3-2-4v-123l3-5 4-2h63v-10l3-5 4-3h2l1 6-3 3-1 9h41l-1-10-1-1-7-1v-6h8l5 3 2 4v11h54l-2-5-1-6v-35l3-37 6-50 3-21-41 15-4 1-3 9-7 25-9 38-5 23-3 1-15-3 1-14 12-98 4-5 11-9 13-11 11-9 13-11 11-9 13-11 10-6z" fill="#683D47"/>
<path transform="translate(983,960)" d="m0 0 13 1 16 1v1h-17l2 7v4l23-1v-4l8 1 26 8 31 12 20 9 25 12 18 10 23 14 22 15 19 14 17 14 11 9 17 16 26 26 7 8 12 14 12 15 13 18 16 24 12 20 12 22 13 27v3h-157l-1-5v-11l3-12 5-9 8-11 10-12 7-10 4-8 2-7v-15l-3-7-5-6-12-6-4-1h-21l-29 7-16 1-12-2-10-5-8-9-7-11-5-4-3-1h-12l-17 5-7 2h-12l-8-4-7-8-3-8v-19l6-15 11-21 5-12 2-11-1-13-5-10-6-5-11-3h-11l-18 2h-12l-9-2-8-4-10-9-6-10-3-9-1-6z" fill="#202646"/>
<path transform="translate(1044,598)" d="m0 0h15l14 3 16 8 10 8 9 12 5 10v2l3-1h17l12 4 11 8 7 9 5 13v19l-2 7h7l10 3 6 4 5 4 5 7 3 10v13l-5 12-6 7-10 6-8 2h-194l-12-15-9-12-13-17-1-4 2-3 1-5 1-16 4-2h9l1-6 6-10 8-7 7-3h3l1-17 5-15 6-11 8-9h2v-2l10-7 12-6z" fill="#FDFDFD"/>
<path transform="translate(82,202)" d="m0 0h22l14 4 13 7 10 9 9 13 3 6v2l5-1h13l10 3 9 5 9 9 6 12 2 9v8l-3 13h10l10 4 8 7 5 8 2 6v15l-4 10-8 9-10 5-3 1h-214v-72h5l3-9 7-9 10-6 5-1v-13l4-15 6-11 7-9 9-8 8-5 14-5z" fill="#FEFEFE"/>
<path transform="translate(831,487)" d="m0 0 4 1 6 15 7 27 3 14v-15l-1-20-1-7 5-3 7 1 3 3-1 9 22 156 2 18-14 21-3-1-7-8-5-5-1 21h10v1h-10l-1 5-7 8-13 5-4 1h-20l-13-4-9-6-3-13v-35l3-37 6-50 3-21-41 15-4 1-3 9-7 25-9 38-5 23-3 1-15-3 1-14 12-98 4-5 11-9 13-11 11-9 13-11 11-9 13-11 10-6z" fill="#212746"/>
<path transform="translate(1011,445)" d="m0 0h20l-4 20-14 58-12 45-8 24-5 8-12-3-27-10-17-6-5-1 13 62 6 34 2 17v19l-2 7-2 3-16 5h-20l-12-3-9-5-1-3h-11v-1l9-1v-11l7-38 2-15 1-13v-16l-2-15-6-27-8-47-6-44 13 1 12 3 14 7 25 17 23 15 9 5h4l15-34 18-43z" fill="#212747"/>
<path transform="translate(877,771)" d="m0 0 11 7 44 29 25 17 6 4 14 57 18 75v2l-13-2-32-5-34-3h-69l6-38 23-140z" fill="#BCDAEC"/>
<path transform="translate(1400,1098)" d="m0 0h10l12 3 11 6 9 9 6 10v3l3-1h11l9 3 8 6 6 8 3 7v14l-1 4 11 3 6 4 6 7 2 5v13l-5 10-8 6-6 2h-143l-7-10-10-16-12-17 1-4 8-5 9-1 3-9 9-8 6-3 2-15 4-10 6-8 7-7 14-7z" fill="#FDFDFD"/>
<path transform="translate(886,352)" d="m0 0h2l4 13 1 5v19l-4 10-5 5-1 3 5 15 1 6v15l-3 10-6 8-9 6-4 2 3 11 3 10 8 54 7 40 6 27 1 10v16l-2 21-5 29-3 16v12h-18l-10-1v-21h3l9 10 2 3h2l11-17 2-3-3-25-21-149 1-10-5-2-6 1-3 1 2 7 1 24v13l-2-2-6-27-6-20-5-10 2-10 2-6-10-3-4-3-9-2-11-6-7-7-5-10-2-10 1-18 4-15 7-10 8-6 13-5 14-2 23-1 12-3 8-5h2l2-4z" fill="#FAB089"/>
<path transform="translate(1119,381)" d="m0 0h7l-3 12-1 10v21l2 14 2 7-20-1-58-4-3-2-1-3-6-1 2-8v-11l-3-5-5-3-4-1h-12l-11 3v5l11 11 2 6h-3l-5-4-5 1-2 3-21-1-46-4-1-1v-5l-14-1-12-2v-8l2-1 18-2h6v-5l1-1 45-4 64-5 1-4 1-1z" fill="#673C47"/>
<path transform="translate(886,352)" d="m0 0h2l4 13 1 5v19l-4 10-5 5-8 5-10 2h-31l-1 2v8l4 7 5 5h-11l-8 2-5 5v12l4 11v2l-9-2-11-6-7-7-5-10-2-10 1-18 4-15 7-10 8-6 13-5 14-2 23-1 12-3 8-5h2l2-4z" fill="#0E1335"/>
<path transform="translate(620,722)" d="m0 0h30v50l-4 3-1 3v26l5 5v50h-30l-5-3-2-4v-123l3-5z" fill="#683D47"/>
<path transform="translate(854,499)" d="m0 0 7 1 3 3-1 9 22 156 2 18-14 21-3-1-7-8-9-10-3-159-1-20-1-7z" fill="#EA1B39"/>
<path transform="translate(769,722)" d="m0 0h21l1 2 12 124v9l-3 2h-30v-51l4-3v-29l-4-4z" fill="#683D47"/>
<path transform="translate(870,489)" d="m0 0 3 1 8 54 7 40 6 27 1 10v16l-2 21-5 29-3 16v12h-18l-10-1v-21h3l9 10 2 3h2l11-17 2-3-3-25-21-149 1-10-5-2-1-3z" fill="#FAF7F6"/>
<path transform="translate(650,722)" d="m0 0h14l1 1 1 49 4 4v29l-4 4-1 50h-15l-1-50-5-5v-26l3-5 2-1z" fill="#0D1335"/>
<path transform="translate(755,722)" d="m0 0h14l1 1 1 49 4 4v29l-3 3h-2v51h-15l-1-50-5-5v-27l5-5z" fill="#0D1335"/>
<path transform="translate(711,676)" d="m0 0 20 4 5 7 1 3v12l-5 2-7-4-3 1-1 3v6h7l2 2v10h-41v-9l3-3v-14l5-9 5-6z" fill="#FAB089"/>
<path transform="translate(1016,405)" d="m0 0h12l7 3 5 5 1 2v11l-5 13-4 6h-22l-4-3v-2h-2l-2-5 1-6 4-3 5 1 5 4-2-6-11-11 1-5 6-3z" fill="#FAB089"/>
<path transform="translate(842,993)" d="m0 0 12 1 15 5 8 6 4 5v3h-62l-1-1-1-9v-9z" fill="#0C1234"/>
<path transform="translate(1021,973)" d="m0 0h7l19 5v2l4 1 5 5 3 4-1 4-59-1-1-9v-9z" fill="#0C1234"/>
<path transform="translate(769,808)" d="m0 0h1v51h-15v-50z" fill="#212747"/>
<path transform="translate(755,722)" d="m0 0h14l1 1 1 50-16-1z" fill="#212747"/>
<path transform="translate(650,722)" d="m0 0h14l1 1 1 50-16-1z" fill="#212747"/>
<path transform="translate(650,809)" d="m0 0h15v50h-15z" fill="#212747"/>
<path transform="translate(1127,381)" d="m0 0 4 1 3 12 1 7v24l-2 13-3 7-4-1-3-6-2-14v-21l2-15 3-6z" fill="#FAFBFC"/>
<path transform="translate(886,677)" d="m0 0 1 2h2l-2 13-2 11v12h-18l-10-1v-21h3l9 10 2 3h2l11-17 2-3z" fill="#F5F2F1"/>
<path transform="translate(835,488)" d="m0 0 19 9v3l-5 2 2 7 1 24v13l-2-2-6-27-6-20z" fill="#F6F2F0"/>
<path transform="translate(816,982)" d="m0 0h27l-1 10-2 2h-23l-1-2z" fill="#F0F6FA"/>
<path transform="translate(651,779)" d="m0 0h13v23l-5 1h-7l-1-1z" fill="#212747"/>
<path transform="translate(756,779)" d="m0 0h12l1 5v17l-1 2h-11l-1-1z" fill="#212747"/>
<path transform="translate(929,406)" d="m0 0h6v14l-14-1-12-2v-8l2-1z" fill="#0F1537"/>
<path transform="translate(995,963)" d="m0 0h25v10l-4 1h-19z" fill="#F7FAFC"/>
<path transform="translate(744,1271)" d="m0 0h8l11 4 6 4v1h-37l2-4 7-4z" fill="#0C1234"/>
<path transform="translate(722,710)" d="m0 0h6l2 2v10h-15l5-4z" fill="#BCDAEC"/>
<path transform="translate(1047,1276)" d="m0 0h11l8 2 2 2h-40l4-2z" fill="#212747"/>
<path transform="translate(692,710)" d="m0 0 4 4v2l4 2 5 3v1h-16v-9z" fill="#BCDAEC"/>
</svg>
